<?xml version="1.0" encoding="utf-8"?>
<!-- Generator: Adobe Illustrator 26.0.1, SVG Export Plug-In . SVG Version: 6.00 Build 0)  -->
<svg version="1.1" id="Layer_1" xmlns="http://www.w3.org/2000/svg" xmlns:xlink="http://www.w3.org/1999/xlink" x="0px" y="0px"
	 viewBox="0 0 800 800" style="enable-background:new 0 0 800 800;" xml:space="preserve">
<style type="text/css">
	.st0{fill:none;stroke:#000000;stroke-width:40;stroke-miterlimit:10;}
</style>
<path class="st0" d="M563.7,389.3c0,87.5-69.2,158.3-154.6,158.3s-154.6-70.9-154.6-158.3c0-24.8,9.4-117.1,46.4-117.1
	c59,0,155,0,209,0C550.8,272.2,563.7,365,563.7,389.3z"/>
<path class="st0" d="M106.8,798c0-136.1,135.5-246.4,302.6-246.4S711.9,662,711.9,798"/>
<path class="st0" d="M556.3,272.2c0-83.3-67.5-150.8-150.8-150.8s-150.8,67.5-150.8,150.8H556.3z"/>
<line class="st0" x1="569" y1="272.2" x2="661" y2="272.2"/>
</svg>
