<?xml version="1.0" encoding="utf-8"?>
<!-- Generator: Adobe Illustrator 26.0.1, SVG Export Plug-In . SVG Version: 6.00 Build 0)  -->
<svg version="1.1" id="Layer_1" xmlns="http://www.w3.org/2000/svg" xmlns:xlink="http://www.w3.org/1999/xlink" x="0px" y="0px"
	 viewBox="0 0 800 800" style="enable-background:new 0 0 800 800;" xml:space="preserve">
<style type="text/css">
	.st0{fill:none;stroke:#000000;stroke-width:40;stroke-miterlimit:10;}
</style>
<path class="st0" d="M409.2,238.5c6.8,0,13.4,0.4,20,1.3c75.9,9.8,134.6,74.7,134.6,153.3c0,85.4-69.2,154.6-154.6,154.6
	s-154.6-69.2-154.6-154.6S323.8,238.5,409.2,238.5z"/>
<path class="st0" d="M106.8,798c0-136.1,135.5-246.4,302.6-246.4S711.9,662,711.9,798"/>
<line class="st0" x1="508.2" y1="277.6" x2="549.2" y2="199.5"/>
<path class="st0" d="M400.3,237.5c0-5-10-76-10-76"/>
<path class="st0" d="M337.1,238.2c-0.9-6-28.3-60.4-28.3-60.4"/>
<path class="st0" d="M291.9,277.6c-3-6-44.6-54-44.6-54"/>
<path class="st0" d="M460.7,244.7c0.3-9.5,15.9-73.5,15.9-73.5"/>
</svg>
